<svg version="1.2" xmlns="http://www.w3.org/2000/svg" viewBox="0 0 24 24" width="300" height="300">
	<title>reshot-icon-stick-arrow-right-V3UF7TC4SP-svg</title>
	<style>
		.s0 { mix-blend-mode: saturation;fill: #bd4f34 } 
	</style>
	<g id="Right-4">
		<path id="Layer" class="s0" d="m16.7 5.6l-3.5 3.1c-0.2 0.2-0.5 0.3-0.8 0.3-0.4 0-0.7-0.1-0.9-0.3q-0.3-0.3-0.3-0.7 0-0.5 0.3-0.8l1.5-1.3h-11.3c-0.3 0-0.6-0.1-0.9-0.3-0.2-0.2-0.3-0.5-0.3-0.8 0-0.2 0.1-0.5 0.3-0.7 0.3-0.2 0.6-0.3 0.9-0.3h11.3l-1.5-1.3q-0.3-0.4-0.3-0.8 0-0.4 0.3-0.7c0.2-0.2 0.5-0.3 0.9-0.3 0.3 0 0.6 0.1 0.8 0.3l3.5 3.1q0.2 0.2 0.3 0.3 0.1 0.2 0.1 0.4 0 0.3-0.1 0.4-0.1 0.2-0.3 0.4z"/>
	</g>
</svg>