<?xml version="1.0" encoding="UTF-8"?>
<svg id="Layer_2" data-name="Layer 2" xmlns="http://www.w3.org/2000/svg" viewBox="0 0 1104.67 730.51">
  <defs>
    <style>
      .cls-1 {
        font-size: 90.14px;
      }

      .cls-1, .cls-2 {
        font-family: EduNSWACTFoundation-Medium, 'Edu NSW ACT Foundation';
        font-variation-settings: 'wght' 500;
        font-weight: 500;
      }

      .cls-1, .cls-3 {
        fill: #e2613f;
      }

      .cls-2 {
        fill: #fc6;
        font-size: 109.26px;
      }

      .cls-4 {
        fill: none;
        stroke: #e2613f;
        stroke-linecap: round;
        stroke-linejoin: round;
        stroke-width: 2px;
      }

      .cls-5 {
        fill: #5d7bb8;
      }

      .cls-5, .cls-3, .cls-6 {
        stroke-width: 0px;
      }

      .cls-6 {
        fill: #fcf6e1;
      }
    </style>
  </defs>
  <g id="Layer_1-2" data-name="Layer 1">
    <g>
      <g>
        <g>
          <text class="cls-1" transform="translate(.88 79.87)"><tspan x="0" y="0">3,20€</tspan></text>
          <text class="cls-1" transform="translate(304.53 79.87)"><tspan x="0" y="0">5,40€</tspan></text>
          <path class="cls-6" d="m225.59,44.83c-.12-1.24.31-2.35,1.3-3.35.99-.99,2.48-1.49,4.46-1.49h50.21c1.98,0,3.47.5,4.46,1.49.99.99,1.55,2.11,1.67,3.35.12,1.24-.25,2.39-1.12,3.44-.87,1.05-2.36,1.58-4.46,1.58h-50.03c-1.99,0-3.53-.53-4.65-1.58-1.12-1.05-1.74-2.2-1.86-3.44Zm28.83,31.06c-1.37,0-2.6-.59-3.72-1.77-1.12-1.18-1.61-2.76-1.49-4.74l5.21-49.47c.25-1.74.84-3.04,1.77-3.91.93-.87,1.95-1.3,3.07-1.3,1.36,0,2.57.59,3.63,1.77,1.05,1.18,1.52,2.82,1.39,4.93l-5.02,48.17c-.25,2.36-.84,4-1.77,4.93s-1.95,1.39-3.07,1.39Z"/>
        </g>
        <g>
          <text class="cls-1" transform="translate(590 79.87)"><tspan x="0" y="0">5,10€</tspan></text>
          <text class="cls-1" transform="translate(893.65 79.87)"><tspan x="0" y="0">2,30€</tspan></text>
          <path class="cls-6" d="m814.71,44.83c-.12-1.24.31-2.35,1.3-3.35.99-.99,2.48-1.49,4.46-1.49h50.21c1.98,0,3.47.5,4.46,1.49.99.99,1.55,2.11,1.67,3.35.12,1.24-.25,2.39-1.12,3.44-.87,1.05-2.36,1.58-4.46,1.58h-50.03c-1.99,0-3.53-.53-4.65-1.58-1.12-1.05-1.74-2.2-1.86-3.44Zm28.83,31.06c-1.37,0-2.6-.59-3.72-1.77-1.12-1.18-1.61-2.76-1.49-4.74l5.21-49.47c.25-1.74.84-3.04,1.77-3.91.93-.87,1.95-1.3,3.07-1.3,1.36,0,2.57.59,3.63,1.77,1.05,1.18,1.52,2.82,1.39,4.93l-5.02,48.17c-.25,2.36-.84,4-1.77,4.93-.93.93-1.95,1.39-3.07,1.39Z"/>
        </g>
      </g>
      <g>
        <g>
          <text class="cls-1" transform="translate(.88 697.79)"><tspan x="0" y="0">3,10€</tspan></text>
          <text class="cls-1" transform="translate(304.53 697.79)"><tspan x="0" y="0">6,50€</tspan></text>
          <path class="cls-6" d="m225.59,662.76c-.12-1.24.31-2.35,1.3-3.35.99-.99,2.48-1.49,4.46-1.49h50.21c1.98,0,3.47.5,4.46,1.49.99.99,1.55,2.11,1.67,3.35.12,1.24-.25,2.39-1.12,3.44-.87,1.05-2.36,1.58-4.46,1.58h-50.03c-1.99,0-3.53-.53-4.65-1.58-1.12-1.05-1.74-2.2-1.86-3.44Zm28.83,31.06c-1.37,0-2.6-.59-3.72-1.77-1.12-1.18-1.61-2.76-1.49-4.74l5.21-49.47c.25-1.74.84-3.04,1.77-3.91.93-.87,1.95-1.3,3.07-1.3,1.36,0,2.57.59,3.63,1.77,1.05,1.18,1.52,2.82,1.39,4.93l-5.02,48.17c-.25,2.36-.84,4-1.77,4.93-.93.93-1.95,1.39-3.07,1.39Z"/>
        </g>
        <g>
          <text class="cls-1" transform="translate(590 697.79)"><tspan x="0" y="0">1,40€</tspan></text>
          <text class="cls-1" transform="translate(893.65 697.79)"><tspan x="0" y="0">7,50€</tspan></text>
          <path class="cls-6" d="m814.71,662.76c-.12-1.24.31-2.35,1.3-3.35.99-.99,2.48-1.49,4.46-1.49h50.21c1.98,0,3.47.5,4.46,1.49.99.99,1.55,2.11,1.67,3.35.12,1.24-.25,2.39-1.12,3.44-.87,1.05-2.36,1.58-4.46,1.58h-50.03c-1.99,0-3.53-.53-4.65-1.58-1.12-1.05-1.74-2.2-1.86-3.44Zm28.83,31.06c-1.37,0-2.6-.59-3.72-1.77-1.12-1.18-1.61-2.76-1.49-4.74l5.21-49.47c.25-1.74.84-3.04,1.77-3.91.93-.87,1.95-1.3,3.07-1.3,1.36,0,2.57.59,3.63,1.77,1.05,1.18,1.52,2.82,1.39,4.93l-5.02,48.17c-.25,2.36-.84,4-1.77,4.93-.93.93-1.95,1.39-3.07,1.39Z"/>
        </g>
      </g>
      <g>
        <text class="cls-2" transform="translate(231.37 386.67)"><tspan x="0" y="0">5,20€</tspan></text>
        <text class="cls-2" transform="translate(616.54 386.67)"><tspan x="0" y="0">4,40€</tspan></text>
        <path class="cls-6" d="m509.95,344.21c-.15-1.5.37-2.85,1.58-4.06,1.2-1.2,3-1.8,5.41-1.8h60.86c2.4,0,4.2.6,5.41,1.8,1.2,1.2,1.88,2.56,2.03,4.06.15,1.5-.3,2.9-1.35,4.17-1.05,1.28-2.86,1.92-5.41,1.92h-60.63c-2.41,0-4.28-.64-5.63-1.92-1.35-1.28-2.11-2.67-2.26-4.17Zm34.94,37.64c-1.66,0-3.16-.71-4.51-2.14-1.35-1.43-1.95-3.34-1.8-5.75l6.31-59.96c.3-2.1,1.01-3.68,2.14-4.73,1.13-1.05,2.37-1.58,3.72-1.58,1.65,0,3.12.72,4.39,2.14,1.28,1.43,1.84,3.42,1.69,5.97l-6.09,58.38c-.3,2.86-1.01,4.85-2.14,5.97-1.13,1.13-2.37,1.69-3.72,1.69Z"/>
      </g>
      <g>
        <g>
          <line class="cls-4" x1="370.44" y1="250.64" x2="298.03" y2="178.23"/>
          <polygon class="cls-3" points="308.5 177.13 308.43 179.14 298.58 178.77 298.94 188.63 296.94 188.7 296.5 176.7 308.5 177.13"/>
        </g>
        <g>
          <line class="cls-4" x1="707.75" y1="250.64" x2="780.16" y2="178.23"/>
          <polygon class="cls-3" points="781.26 188.7 779.26 188.63 779.62 178.78 769.76 179.14 769.69 177.14 781.69 176.7 781.26 188.7"/>
        </g>
        <path class="cls-5" d="m386.92,197.38c-.77-.18-1.36-.68-1.78-1.51-.42-.83-.56-1.93-.44-3.29.53-4.98,2.42-9.04,5.64-12.17,3.23-3.14,7.9-4.71,14-4.71,3.26-.06,6.22.7,8.88,2.27,2.66,1.57,4.73,3.67,6.18,6.31,1.45,2.64,2.03,5.59,1.73,8.84-.48,4.51-1.63,8.52-3.47,12.04-1.84,3.53-4.52,6.28-8.04,8.27-3.53,1.98-8.16,2.92-13.91,2.8l.53-6.66c3.61,0,6.56-.56,8.84-1.69,2.28-1.13,4.06-2.59,5.33-4.4,1.28-1.81,2.19-3.72,2.76-5.73.56-2.01.93-3.88,1.11-5.6.23-2.25-.12-4.09-1.07-5.51-.95-1.42-2.26-2.49-3.96-3.2-1.69-.71-3.63-1.07-5.82-1.07-2.72,0-4.93.56-6.62,1.69-1.69,1.12-2.93,2.58-3.73,4.35-.79,1.78-1.32,3.61-1.56,5.51-.11,1.36-.68,2.34-1.69,2.93-1.01.59-1.98.77-2.93.53Zm6.4,48.16c-1.36,0-2.47-.49-3.33-1.46-.86-.98-1.29-2.06-1.29-3.24,0-1.3.44-2.48,1.33-3.51.89-1.04,1.98-1.56,3.29-1.56s2.56.51,3.6,1.51c1.04,1.01,1.52,2.19,1.47,3.55,0,1.24-.51,2.34-1.51,3.29-1.01.95-2.19,1.42-3.55,1.42Zm1.69-19.28c-.95-.18-1.72-.62-2.31-1.33-.59-.71-.86-1.57-.79-2.58l1.16-10.13c.06-.77.41-1.41,1.07-1.91.65-.51,1.36-.76,2.13-.76l3.73,2.84-1.16,10.22c-.18,1.3-.63,2.26-1.37,2.88-.75.62-1.56.87-2.45.76Z"/>
        <path class="cls-5" d="m677.08,197.38c-.77-.18-1.36-.68-1.78-1.51s-.56-1.93-.44-3.29c.53-4.98,2.42-9.04,5.64-12.17,3.23-3.14,7.9-4.71,14-4.71,3.26-.06,6.22.7,8.88,2.27,2.66,1.57,4.73,3.67,6.18,6.31s2.03,5.59,1.73,8.84c-.48,4.51-1.63,8.52-3.47,12.04-1.84,3.53-4.52,6.28-8.04,8.27-3.53,1.98-8.16,2.92-13.91,2.8l.53-6.66c3.61,0,6.56-.56,8.84-1.69,2.28-1.13,4.06-2.59,5.33-4.4,1.28-1.81,2.19-3.72,2.76-5.73.56-2.01.93-3.88,1.11-5.6.23-2.25-.12-4.09-1.07-5.51-.95-1.42-2.26-2.49-3.96-3.2-1.69-.71-3.63-1.07-5.82-1.07-2.72,0-4.93.56-6.62,1.69-1.69,1.12-2.93,2.58-3.73,4.35-.79,1.78-1.32,3.61-1.56,5.51-.11,1.36-.68,2.34-1.69,2.93-1.01.59-1.98.77-2.93.53Zm6.4,48.16c-1.36,0-2.47-.49-3.33-1.46-.86-.98-1.29-2.06-1.29-3.24,0-1.3.44-2.48,1.33-3.51.89-1.04,1.98-1.56,3.29-1.56s2.56.51,3.6,1.51,1.52,2.19,1.47,3.55c0,1.24-.51,2.34-1.51,3.29-1.01.95-2.19,1.42-3.55,1.42Zm1.69-19.28c-.95-.18-1.72-.62-2.31-1.33-.59-.71-.86-1.57-.79-2.58l1.16-10.13c.06-.77.41-1.41,1.07-1.91.65-.51,1.36-.76,2.13-.76l3.73,2.84-1.16,10.22c-.18,1.3-.63,2.26-1.37,2.88-.75.62-1.56.87-2.45.76Z"/>
      </g>
      <g>
        <g>
          <line class="cls-4" x1="370.44" y1="466.07" x2="298.03" y2="538.47"/>
          <polygon class="cls-3" points="296.94 528 298.94 528.07 298.58 537.93 308.43 537.57 308.5 539.57 296.5 540 296.94 528"/>
        </g>
        <g>
          <line class="cls-4" x1="707.75" y1="466.07" x2="780.16" y2="538.47"/>
          <polygon class="cls-3" points="769.69 539.57 769.76 537.57 779.62 537.93 779.26 528.07 781.26 528 781.69 540 769.69 539.57"/>
        </g>
        <path class="cls-5" d="m378.01,489.8c-.77-.18-1.36-.68-1.78-1.51s-.56-1.93-.44-3.29c.53-4.98,2.42-9.04,5.64-12.17,3.23-3.14,7.9-4.71,14-4.71,3.26-.06,6.22.7,8.88,2.27,2.66,1.57,4.73,3.67,6.18,6.31,1.45,2.64,2.03,5.59,1.73,8.84-.48,4.51-1.63,8.52-3.47,12.04-1.84,3.53-4.52,6.28-8.04,8.27-3.53,1.98-8.16,2.92-13.91,2.8l.53-6.66c3.61,0,6.56-.56,8.84-1.69,2.28-1.13,4.06-2.59,5.33-4.4,1.28-1.81,2.19-3.72,2.76-5.73.56-2.01.93-3.88,1.11-5.6.23-2.25-.12-4.09-1.07-5.51-.95-1.42-2.26-2.49-3.96-3.2-1.69-.71-3.63-1.07-5.82-1.07-2.72,0-4.93.56-6.62,1.69-1.69,1.12-2.93,2.58-3.73,4.35-.79,1.78-1.32,3.61-1.56,5.51-.11,1.36-.68,2.34-1.69,2.93-1.01.59-1.98.77-2.93.53Zm6.4,48.16c-1.36,0-2.47-.49-3.33-1.46s-1.29-2.06-1.29-3.24c0-1.3.44-2.48,1.33-3.51.89-1.04,1.98-1.56,3.29-1.56s2.56.51,3.6,1.51,1.52,2.19,1.47,3.55c0,1.24-.51,2.34-1.51,3.29-1.01.95-2.19,1.42-3.55,1.42Zm1.69-19.28c-.95-.18-1.72-.62-2.31-1.33-.59-.71-.86-1.57-.79-2.58l1.16-10.13c.06-.77.41-1.41,1.07-1.91.65-.51,1.36-.76,2.13-.76l3.73,2.84-1.16,10.22c-.18,1.3-.63,2.26-1.37,2.88-.75.62-1.56.87-2.45.76Z"/>
        <path class="cls-5" d="m668.16,489.8c-.77-.18-1.36-.68-1.78-1.51s-.56-1.93-.44-3.29c.53-4.98,2.42-9.04,5.64-12.17,3.23-3.14,7.9-4.71,14-4.71,3.26-.06,6.22.7,8.88,2.27,2.66,1.57,4.73,3.67,6.18,6.31,1.45,2.64,2.03,5.59,1.73,8.84-.48,4.51-1.63,8.52-3.47,12.04-1.84,3.53-4.52,6.28-8.04,8.27-3.53,1.98-8.16,2.92-13.91,2.8l.53-6.66c3.61,0,6.56-.56,8.84-1.69,2.28-1.13,4.06-2.59,5.33-4.4,1.28-1.81,2.19-3.72,2.76-5.73.56-2.01.93-3.88,1.11-5.6.23-2.25-.12-4.09-1.07-5.51-.95-1.42-2.26-2.49-3.96-3.2-1.69-.71-3.63-1.07-5.82-1.07-2.72,0-4.93.56-6.62,1.69-1.69,1.12-2.93,2.58-3.73,4.35-.79,1.78-1.32,3.61-1.56,5.51-.11,1.36-.68,2.34-1.69,2.93-1.01.59-1.98.77-2.93.53Zm6.4,48.16c-1.36,0-2.47-.49-3.33-1.46-.86-.98-1.29-2.06-1.29-3.24,0-1.3.44-2.48,1.33-3.51.89-1.04,1.98-1.56,3.29-1.56s2.56.51,3.6,1.51c1.04,1.01,1.52,2.19,1.47,3.55,0,1.24-.51,2.34-1.51,3.29-1.01.95-2.19,1.42-3.55,1.42Zm1.69-19.28c-.95-.18-1.72-.62-2.31-1.33-.59-.71-.86-1.57-.79-2.58l1.16-10.13c.06-.77.41-1.41,1.07-1.91.65-.51,1.36-.76,2.13-.76l3.73,2.84-1.16,10.22c-.18,1.3-.63,2.26-1.37,2.88-.75.62-1.56.87-2.45.76Z"/>
      </g>
    </g>
  </g>
</svg>