<?xml version="1.0" encoding="UTF-8"?>
<svg id="Layer_2" data-name="Layer 2" xmlns="http://www.w3.org/2000/svg" viewBox="0 0 858.88 676.19">
  <defs>
    <style>
      .cls-1 {
        fill: #fc6;
      }

      .cls-1, .cls-2 {
        font-family: EduNSWACTFoundation-Medium, 'Edu NSW ACT Foundation';
        font-size: 103.15px;
        font-variation-settings: 'wght' 500;
        font-weight: 500;
      }

      .cls-3 {
        fill: none;
        stroke: #e2613f;
        stroke-linecap: round;
        stroke-linejoin: round;
        stroke-width: 2px;
      }

      .cls-2, .cls-4 {
        fill: #e2613f;
      }

      .cls-5 {
        fill: #5d7bb8;
      }

      .cls-5, .cls-4, .cls-6 {
        stroke-width: 0px;
      }

      .cls-6 {
        fill: #fcf6e1;
      }
    </style>
  </defs>
  <g id="Layer_1-2" data-name="Layer 1">
    <g>
      <g>
        <text class="cls-2" transform="translate(1.01 91.39)"><tspan x="0" y="0">3€</tspan></text>
        <text class="cls-2" transform="translate(245.21 91.39)"><tspan x="0" y="0">3€</tspan></text>
        <path class="cls-6" d="m144.58,51.3c-.14-1.42.35-2.69,1.49-3.83,1.13-1.13,2.83-1.7,5.11-1.7h57.46c2.27,0,3.97.57,5.11,1.7,1.13,1.14,1.77,2.41,1.92,3.83.14,1.42-.29,2.73-1.28,3.94-.99,1.21-2.7,1.81-5.11,1.81h-57.25c-2.27,0-4.04-.6-5.32-1.81-1.28-1.2-1.99-2.52-2.13-3.94Zm32.99,35.54c-1.56,0-2.98-.67-4.26-2.02-1.28-1.35-1.84-3.16-1.7-5.43l5.96-56.61c.28-1.99.96-3.47,2.02-4.47,1.06-.99,2.23-1.49,3.51-1.49,1.56,0,2.94.68,4.15,2.02,1.2,1.35,1.74,3.23,1.6,5.64l-5.75,55.12c-.29,2.7-.96,4.58-2.02,5.64-1.06,1.06-2.23,1.6-3.51,1.6Z"/>
        <text class="cls-2" transform="translate(499.67 91.39)"><tspan x="0" y="0">2€</tspan></text>
        <text class="cls-2" transform="translate(743.87 91.39)"><tspan x="0" y="0">3€</tspan></text>
        <path class="cls-6" d="m643.24,51.3c-.14-1.42.35-2.69,1.49-3.83,1.13-1.13,2.83-1.7,5.11-1.7h57.46c2.27,0,3.97.57,5.11,1.7,1.13,1.14,1.77,2.41,1.92,3.83.14,1.42-.29,2.73-1.28,3.94-.99,1.21-2.7,1.81-5.11,1.81h-57.25c-2.27,0-4.04-.6-5.32-1.81-1.28-1.2-1.99-2.52-2.13-3.94Zm32.99,35.54c-1.56,0-2.98-.67-4.26-2.02-1.28-1.35-1.84-3.16-1.7-5.43l5.96-56.61c.28-1.99.96-3.47,2.02-4.47,1.06-.99,2.23-1.49,3.51-1.49,1.56,0,2.94.68,4.15,2.02,1.2,1.35,1.74,3.23,1.6,5.64l-5.75,55.12c-.29,2.7-.96,4.58-2.02,5.64s-2.23,1.6-3.51,1.6Z"/>
      </g>
      <g>
        <text class="cls-2" transform="translate(1.01 638.75)"><tspan x="0" y="0">3€</tspan></text>
        <text class="cls-2" transform="translate(245.21 638.75)"><tspan x="0" y="0">5€</tspan></text>
        <path class="cls-6" d="m144.58,598.66c-.14-1.42.35-2.69,1.49-3.83,1.13-1.13,2.83-1.7,5.11-1.7h57.46c2.27,0,3.97.57,5.11,1.7,1.13,1.14,1.77,2.41,1.92,3.83.14,1.42-.29,2.73-1.28,3.94-.99,1.21-2.7,1.81-5.11,1.81h-57.25c-2.27,0-4.04-.6-5.32-1.81-1.28-1.2-1.99-2.52-2.13-3.94Zm32.99,35.54c-1.56,0-2.98-.67-4.26-2.02-1.28-1.35-1.84-3.16-1.7-5.43l5.96-56.61c.28-1.99.96-3.47,2.02-4.47,1.06-.99,2.23-1.49,3.51-1.49,1.56,0,2.94.68,4.15,2.02,1.2,1.35,1.74,3.23,1.6,5.64l-5.75,55.12c-.29,2.7-.96,4.58-2.02,5.64s-2.23,1.6-3.51,1.6Z"/>
        <text class="cls-2" transform="translate(499.67 638.75)"><tspan x="0" y="0">2€</tspan></text>
        <text class="cls-2" transform="translate(743.87 638.75)"><tspan x="0" y="0">5€</tspan></text>
        <path class="cls-6" d="m643.24,598.66c-.14-1.42.35-2.69,1.49-3.83,1.13-1.13,2.83-1.7,5.11-1.7h57.46c2.27,0,3.97.57,5.11,1.7,1.13,1.14,1.77,2.41,1.92,3.83.14,1.42-.29,2.73-1.28,3.94-.99,1.21-2.7,1.81-5.11,1.81h-57.25c-2.27,0-4.04-.6-5.32-1.81-1.28-1.2-1.99-2.52-2.13-3.94Zm32.99,35.54c-1.56,0-2.98-.67-4.26-2.02-1.28-1.35-1.84-3.16-1.7-5.43l5.96-56.61c.28-1.99.96-3.47,2.02-4.47,1.06-.99,2.23-1.49,3.51-1.49,1.56,0,2.94.68,4.15,2.02,1.2,1.35,1.74,3.23,1.6,5.64l-5.75,55.12c-.29,2.7-.96,4.58-2.02,5.64s-2.23,1.6-3.51,1.6Z"/>
      </g>
      <g>
        <text class="cls-1" transform="translate(240.38 365.07)"><tspan x="0" y="0">4€</tspan></text>
        <text class="cls-1" transform="translate(484.58 365.07)"><tspan x="0" y="0">2€</tspan></text>
        <path class="cls-6" d="m383.95,324.98c-.14-1.42.35-2.69,1.49-3.83,1.13-1.13,2.83-1.7,5.11-1.7h57.46c2.27,0,3.97.57,5.11,1.7,1.13,1.14,1.77,2.41,1.92,3.83.14,1.42-.29,2.73-1.28,3.94-.99,1.21-2.7,1.81-5.11,1.81h-57.25c-2.27,0-4.04-.6-5.32-1.81-1.28-1.2-1.99-2.52-2.13-3.94Zm32.99,35.54c-1.56,0-2.98-.67-4.26-2.02-1.28-1.35-1.84-3.16-1.7-5.43l5.96-56.61c.28-1.99.96-3.47,2.02-4.47,1.06-.99,2.23-1.49,3.51-1.49,1.56,0,2.94.68,4.15,2.02,1.2,1.35,1.74,3.23,1.6,5.64l-5.75,55.12c-.29,2.7-.96,4.58-2.02,5.64s-2.23,1.6-3.51,1.6Z"/>
      </g>
      <g>
        <g>
          <line class="cls-3" x1="257.71" y1="236.64" x2="189.44" y2="168.36"/>
          <polygon class="cls-4" points="199.91 167.27 199.84 169.27 189.98 168.91 190.34 178.76 188.34 178.83 187.9 166.83 199.91 167.27"/>
        </g>
        <g>
          <line class="cls-3" x1="576.19" y1="236.64" x2="644.46" y2="168.36"/>
          <polygon class="cls-4" points="645.56 178.83 643.56 178.76 643.92 168.91 634.06 169.27 633.99 167.27 646 166.83 645.56 178.83"/>
        </g>
        <path class="cls-5" d="m273.28,186.35c-.73-.17-1.29-.64-1.68-1.42s-.53-1.82-.42-3.1c.5-4.7,2.28-8.53,5.33-11.49,3.05-2.97,7.46-4.45,13.21-4.45,3.08-.06,5.87.66,8.39,2.14,2.52,1.48,4.46,3.47,5.83,5.96s1.92,5.27,1.64,8.35c-.45,4.25-1.54,8.04-3.27,11.37-1.74,3.33-4.27,5.93-7.59,7.8-3.33,1.87-7.71,2.75-13.13,2.64l.5-6.29c3.41,0,6.2-.53,8.35-1.59,2.15-1.06,3.83-2.45,5.03-4.16,1.2-1.7,2.07-3.51,2.61-5.41.53-1.9.88-3.66,1.05-5.28.22-2.13-.11-3.86-1.01-5.2-.89-1.34-2.14-2.35-3.74-3.02-1.59-.67-3.42-1.01-5.49-1.01-2.57,0-4.65.53-6.25,1.59-1.59,1.06-2.77,2.43-3.52,4.11-.75,1.68-1.24,3.41-1.47,5.2-.11,1.29-.64,2.21-1.59,2.77-.95.56-1.87.73-2.77.5Zm6.04,45.47c-1.29,0-2.33-.46-3.14-1.38-.81-.92-1.22-1.94-1.22-3.06,0-1.23.42-2.34,1.26-3.31.84-.98,1.87-1.47,3.11-1.47s2.42.48,3.39,1.43,1.44,2.07,1.39,3.36c0,1.17-.48,2.21-1.42,3.1-.95.89-2.07,1.34-3.36,1.34Zm1.59-18.2c-.89-.17-1.62-.59-2.18-1.26-.56-.67-.81-1.48-.75-2.44l1.09-9.56c.05-.73.39-1.33,1.01-1.8.61-.48,1.28-.72,2.01-.72l3.52,2.69-1.09,9.65c-.17,1.23-.6,2.14-1.3,2.72-.7.59-1.47.83-2.31.72Z"/>
        <path class="cls-5" d="m547.22,186.35c-.73-.17-1.29-.64-1.68-1.42s-.53-1.82-.42-3.1c.5-4.7,2.28-8.53,5.33-11.49,3.05-2.97,7.46-4.45,13.21-4.45,3.08-.06,5.87.66,8.39,2.14,2.52,1.48,4.46,3.47,5.83,5.96s1.92,5.27,1.64,8.35c-.45,4.25-1.54,8.04-3.27,11.37-1.74,3.33-4.27,5.93-7.59,7.8-3.33,1.87-7.71,2.75-13.13,2.64l.5-6.29c3.41,0,6.2-.53,8.35-1.59,2.15-1.06,3.83-2.45,5.03-4.16,1.2-1.7,2.07-3.51,2.61-5.41.53-1.9.88-3.66,1.05-5.28.22-2.13-.11-3.86-1.01-5.2-.89-1.34-2.14-2.35-3.74-3.02-1.59-.67-3.42-1.01-5.49-1.01-2.57,0-4.65.53-6.25,1.59-1.59,1.06-2.77,2.43-3.52,4.11-.75,1.68-1.24,3.41-1.47,5.2-.11,1.29-.64,2.21-1.59,2.77-.95.56-1.87.73-2.77.5Zm6.04,45.47c-1.29,0-2.33-.46-3.14-1.38s-1.22-1.94-1.22-3.06c0-1.23.42-2.34,1.26-3.31.84-.98,1.87-1.47,3.11-1.47s2.42.48,3.39,1.43c.98.95,1.44,2.07,1.39,3.36,0,1.17-.48,2.21-1.42,3.1-.95.89-2.07,1.34-3.36,1.34Zm1.59-18.2c-.89-.17-1.62-.59-2.18-1.26-.56-.67-.81-1.48-.75-2.44l1.09-9.56c.05-.73.39-1.33,1.01-1.8.61-.48,1.28-.72,2.01-.72l3.52,2.69-1.09,9.65c-.17,1.23-.6,2.14-1.3,2.72-.7.59-1.47.83-2.31.72Z"/>
      </g>
      <g>
        <g>
          <line class="cls-3" x1="257.71" y1="440.03" x2="189.44" y2="508.31"/>
          <polygon class="cls-4" points="188.34 497.84 190.34 497.91 189.98 507.76 199.83 507.4 199.91 509.4 187.9 509.84 188.34 497.84"/>
        </g>
        <g>
          <line class="cls-3" x1="576.19" y1="440.03" x2="644.46" y2="508.31"/>
          <polygon class="cls-4" points="633.99 509.41 634.06 507.41 643.92 507.77 643.56 497.91 645.56 497.84 645.99 509.84 633.99 509.41"/>
        </g>
        <path class="cls-5" d="m264.86,462.44c-.73-.17-1.29-.64-1.68-1.42s-.53-1.82-.42-3.1c.5-4.7,2.28-8.53,5.33-11.49,3.05-2.97,7.46-4.45,13.21-4.45,3.08-.06,5.87.66,8.39,2.14,2.52,1.48,4.46,3.47,5.83,5.96s1.92,5.27,1.64,8.35c-.45,4.25-1.54,8.04-3.27,11.37-1.74,3.33-4.27,5.93-7.59,7.8-3.33,1.87-7.71,2.75-13.13,2.64l.5-6.29c3.41,0,6.2-.53,8.35-1.59,2.15-1.06,3.83-2.45,5.03-4.16,1.2-1.7,2.07-3.51,2.61-5.41.53-1.9.88-3.66,1.05-5.28.22-2.13-.11-3.86-1.01-5.2-.89-1.34-2.14-2.35-3.74-3.02-1.59-.67-3.42-1.01-5.49-1.01-2.57,0-4.65.53-6.25,1.59-1.59,1.06-2.77,2.43-3.52,4.11-.75,1.68-1.24,3.41-1.47,5.2-.11,1.29-.64,2.21-1.59,2.77-.95.56-1.87.73-2.77.5Zm6.04,45.47c-1.29,0-2.33-.46-3.14-1.38-.81-.92-1.22-1.94-1.22-3.06,0-1.23.42-2.34,1.26-3.31.84-.98,1.87-1.47,3.11-1.47s2.42.48,3.39,1.43,1.44,2.07,1.39,3.36c0,1.17-.48,2.21-1.42,3.1-.95.89-2.07,1.34-3.36,1.34Zm1.59-18.2c-.89-.17-1.62-.59-2.18-1.26-.56-.67-.81-1.48-.75-2.44l1.09-9.56c.05-.73.39-1.33,1.01-1.8.61-.48,1.28-.72,2.01-.72l3.52,2.69-1.09,9.65c-.17,1.23-.6,2.14-1.3,2.72-.7.59-1.47.83-2.31.72Z"/>
        <path class="cls-5" d="m538.81,462.44c-.73-.17-1.29-.64-1.68-1.42s-.53-1.82-.42-3.1c.5-4.7,2.28-8.53,5.33-11.49,3.05-2.97,7.46-4.45,13.21-4.45,3.08-.06,5.87.66,8.39,2.14,2.52,1.48,4.46,3.47,5.83,5.96,1.37,2.49,1.92,5.27,1.64,8.35-.45,4.25-1.54,8.04-3.27,11.37-1.74,3.33-4.27,5.93-7.59,7.8-3.33,1.87-7.71,2.75-13.13,2.64l.5-6.29c3.41,0,6.2-.53,8.35-1.59,2.15-1.06,3.83-2.45,5.03-4.16,1.2-1.7,2.07-3.51,2.61-5.41.53-1.9.88-3.66,1.05-5.28.22-2.13-.11-3.86-1.01-5.2-.89-1.34-2.14-2.35-3.74-3.02-1.59-.67-3.42-1.01-5.49-1.01-2.57,0-4.65.53-6.25,1.59-1.59,1.06-2.77,2.43-3.52,4.11-.75,1.68-1.24,3.41-1.47,5.2-.11,1.29-.64,2.21-1.59,2.77-.95.56-1.87.73-2.77.5Zm6.04,45.47c-1.29,0-2.33-.46-3.14-1.38-.81-.92-1.22-1.94-1.22-3.06,0-1.23.42-2.34,1.26-3.31s1.87-1.47,3.11-1.47,2.42.48,3.39,1.43c.98.95,1.44,2.07,1.39,3.36,0,1.17-.48,2.21-1.42,3.1-.95.89-2.07,1.34-3.36,1.34Zm1.59-18.2c-.89-.17-1.62-.59-2.18-1.26-.56-.67-.81-1.48-.75-2.44l1.09-9.56c.05-.73.39-1.33,1.01-1.8.61-.48,1.28-.72,2.01-.72l3.52,2.69-1.09,9.65c-.17,1.23-.6,2.14-1.3,2.72-.7.59-1.47.83-2.31.72Z"/>
      </g>
    </g>
  </g>
</svg>