<?xml version="1.0" encoding="UTF-8"?>
<svg id="Layer_2" data-name="Layer 2" xmlns="http://www.w3.org/2000/svg" viewBox="0 0 359.48 359.48">
  <defs>
    <style>
      .cls-1 {
        fill: #fcf6e1;
      }

      .cls-1, .cls-2, .cls-3, .cls-4 {
        stroke: #333;
        stroke-miterlimit: 10;
        stroke-width: 2px;
      }

      .cls-2 {
        fill: #5d7bb8;
      }

      .cls-3 {
        fill: #e2613f;
      }

      .cls-4 {
        fill: #fabe53;
      }
    </style>
  </defs>
  <g id="Layer_1-2" data-name="Layer 1">
    <g>
      <path class="cls-1" d="m20.64,20.64C8.5,32.77,1,49.53,1,68.05v223.39c0,18.51,7.5,35.28,19.64,47.41l159.1-159.1L20.64,20.64Z"/>
      <path class="cls-4" d="m358.48,291.44V68.05c0-18.51-7.5-35.28-19.64-47.41l-159.1,159.1,159.1,159.1c12.13-12.13,19.64-28.89,19.64-47.41Z"/>
      <path class="cls-3" d="m338.85,20.64c-12.13-12.13-28.89-19.64-47.41-19.64H68.05c-18.51,0-35.28,7.5-47.41,19.64l159.1,159.1L338.85,20.64Z"/>
      <path class="cls-2" d="m20.64,338.85c12.13,12.13,28.89,19.64,47.41,19.64h223.39c18.51,0,35.28-7.5,47.41-19.64l-159.1-159.1L20.64,338.85Z"/>
    </g>
  </g>
</svg>